<svg width="32" height="33" viewBox="0 0 32 33" fill="none" xmlns="http://www.w3.org/2000/svg">
<g filter="url(#filter0_d_1_112)">
<path d="M27.8737 1.32566C27.864 1.27824 27.8409 1.23459 27.8072 1.19983C27.7735 1.16507 27.7306 1.14064 27.6836 1.12941C24.5458 0.36156 17.2959 3.09783 13.368 7.02769C12.6674 7.72324 12.0287 8.47857 11.4592 9.28512C10.2479 9.17788 9.03668 9.26743 8.00434 9.71784C5.09162 11.001 4.24357 14.3491 4.00732 15.7893C3.99392 15.8682 3.99897 15.949 4.02208 16.0256C4.0452 16.1021 4.08574 16.1722 4.14052 16.2304C4.19529 16.2887 4.26282 16.3333 4.33778 16.361C4.41274 16.3887 4.49308 16.3986 4.5725 16.3899L9.2499 15.8735C9.25324 16.2265 9.27451 16.579 9.31365 16.9298C9.33718 17.1734 9.44523 17.4011 9.61901 17.5733L11.4303 19.3819C11.6025 19.5556 11.8298 19.6637 12.0732 19.6875C12.4217 19.7266 12.772 19.7479 13.1226 19.7514L12.6094 24.4271C12.6008 24.5066 12.6108 24.5869 12.6385 24.6619C12.6662 24.7369 12.7108 24.8044 12.7689 24.8592C12.8271 24.914 12.8971 24.9546 12.9735 24.9778C13.0499 25.0009 13.1307 25.0061 13.2094 24.9928C14.6457 24.7622 17.9966 23.9134 19.2711 20.998C19.7211 19.9648 19.8133 18.7583 19.7093 17.5518C20.5171 16.9818 21.2737 16.3423 21.9706 15.6408C25.9109 11.7168 28.6291 4.62226 27.8737 1.32566ZM18.0395 10.9597C17.6797 10.5998 17.4346 10.1412 17.3353 9.6419C17.2359 9.14258 17.2867 8.62499 17.4813 8.1546C17.6759 7.6842 18.0055 7.28213 18.4284 6.99924C18.8513 6.71635 19.3485 6.56536 19.8572 6.56536C20.3659 6.56536 20.8631 6.71635 21.286 6.99924C21.7089 7.28213 22.0385 7.6842 22.2331 8.1546C22.4277 8.62499 22.4785 9.14258 22.3791 9.6419C22.2798 10.1412 22.0347 10.5998 21.6749 10.9597C21.4363 11.1988 21.153 11.3886 20.8411 11.518C20.5292 11.6474 20.1948 11.7141 19.8572 11.7141C19.5195 11.7141 19.1852 11.6474 18.8733 11.518C18.5614 11.3886 18.2781 11.1988 18.0395 10.9597Z" fill="white"/>
<path d="M11.5834 20.4688C11.2837 20.7691 10.8031 20.8861 10.2246 20.9862C8.92488 21.2077 7.77716 20.0844 8.01064 18.7702C8.09977 18.272 8.36333 17.5737 8.52736 17.4096C8.56322 17.3744 8.58708 17.3289 8.59557 17.2794C8.60406 17.2299 8.59673 17.1789 8.57464 17.1338C8.55254 17.0887 8.5168 17.0517 8.47249 17.0281C8.42817 17.0045 8.37754 16.9954 8.32778 17.0022C7.60096 17.0911 6.92479 17.4207 6.4069 17.9384C5.12139 19.2252 5 24 5 24C5 24 9.77679 23.8786 11.0623 22.5918C11.5816 22.0743 11.9115 21.3969 11.999 20.669C12.0192 20.4404 11.7409 20.3042 11.5834 20.4688Z" fill="white"/>
</g>
<defs>
<filter id="filter0_d_1_112" x="-1" y="0" width="34" height="34" filterUnits="userSpaceOnUse" color-interpolation-filters="sRGB">
<feFlood flood-opacity="0" result="BackgroundImageFix"/>
<feColorMatrix in="SourceAlpha" type="matrix" values="0 0 0 0 0 0 0 0 0 0 0 0 0 0 0 0 0 0 127 0" result="hardAlpha"/>
<feOffset dy="4"/>
<feGaussianBlur stdDeviation="2"/>
<feComposite in2="hardAlpha" operator="out"/>
<feColorMatrix type="matrix" values="0 0 0 0 0 0 0 0 0 0 0 0 0 0 0 0 0 0 0.25 0"/>
<feBlend mode="normal" in2="BackgroundImageFix" result="effect1_dropShadow_1_112"/>
<feBlend mode="normal" in="SourceGraphic" in2="effect1_dropShadow_1_112" result="shape"/>
</filter>
</defs>
</svg>
