<svg id="Layer_1" data-name="Layer 1" xmlns="http://www.w3.org/2000/svg" xmlns:xlink="http://www.w3.org/1999/xlink" viewBox="0 0 97.51 22.03"><defs><style>.cls-1{fill:#fff;}.cls-2{mask:url(#mask);}.cls-3{fill:none;stroke:#000;stroke-width:2px;}</style><mask id="mask" x="0" y="0" width="98" height="23" maskUnits="userSpaceOnUse"><g id="path-1-outside-1_508_37" data-name="path-1-outside-1 508 37"><rect class="cls-1" width="98" height="23"/><path d="M19.4,17.57A15.3,15.3,0,0,1,17.8,19,9.68,9.68,0,0,1,16,20.11a9.09,9.09,0,0,1-2.14.67,13,13,0,0,1-2.62.25,10.54,10.54,0,0,1-4.07-.78,10.29,10.29,0,0,1-3.24-2.1A9.54,9.54,0,0,1,1.77,15,10,10,0,0,1,1,11.07V11a9.79,9.79,0,0,1,.77-3.87A9.54,9.54,0,0,1,3.91,4,9.72,9.72,0,0,1,7.18,1.8,10.87,10.87,0,0,1,11.4,1a13.1,13.1,0,0,1,2.53.22A10.93,10.93,0,0,1,16,1.83a9.7,9.7,0,0,1,1.74.94A11.56,11.56,0,0,1,19.26,4L16.47,7.11a10.56,10.56,0,0,0-2.4-1.6,6,6,0,0,0-2.7-.58A5.69,5.69,0,0,0,9,5.4,5.37,5.37,0,0,0,7.21,6.7,6.16,6.16,0,0,0,6,8.63,6.39,6.39,0,0,0,5.59,11v0A6.53,6.53,0,0,0,6,13.36,6.4,6.4,0,0,0,7.18,15.3,5.9,5.9,0,0,0,9,16.63a5.93,5.93,0,0,0,2.37.47,6.06,6.06,0,0,0,2.87-.61,11.24,11.24,0,0,0,2.37-1.66Z"/><path d="M38.15,20.69H33L28.75,14.5H25.3v6.19H20.92V1.33H30A8.22,8.22,0,0,1,35.56,3a5.84,5.84,0,0,1,2,4.7v.06a5.94,5.94,0,0,1-1.2,3.84,6.77,6.77,0,0,1-3.07,2.16ZM33.11,8V7.94a2.43,2.43,0,0,0-.92-2.07,4.09,4.09,0,0,0-2.53-.69H25.3v5.56h4.45A3.63,3.63,0,0,0,32.22,10,2.48,2.48,0,0,0,33.11,8Z"/><path d="M54.69,20.69H39.5V1.33h15V5.12H43.86V9.05h9.4v3.79h-9.4V16.9H54.69Z"/><path d="M76.9,11a9.62,9.62,0,0,1-.8,3.9,10,10,0,0,1-2.22,3.18,10.22,10.22,0,0,1-3.36,2.16,11.94,11.94,0,0,1-8.49,0,10.94,10.94,0,0,1-3.36-2.13A9.91,9.91,0,0,1,56.48,15a9.83,9.83,0,0,1-.77-3.9V11a9.31,9.31,0,0,1,.8-3.87A9.82,9.82,0,0,1,58.7,4,10.32,10.32,0,0,1,62.06,1.8,11.27,11.27,0,0,1,66.33,1a11.13,11.13,0,0,1,4.25.8,10.22,10.22,0,0,1,3.33,2.13A9.07,9.07,0,0,1,76.1,7.09,9.41,9.41,0,0,1,76.9,11Zm-4.59.06V11a6.18,6.18,0,0,0-.45-2.35A5.57,5.57,0,0,0,70.6,6.73a5.5,5.5,0,0,0-1.9-1.3,5.78,5.78,0,0,0-2.43-.5,6.07,6.07,0,0,0-2.44.47A5.51,5.51,0,0,0,62,6.7a6.24,6.24,0,0,0-1.23,1.93A6.39,6.39,0,0,0,60.29,11v0a6.54,6.54,0,0,0,.43,2.35A6,6,0,0,0,62,15.3a6.55,6.55,0,0,0,1.91,1.33,6.29,6.29,0,0,0,2.45.47,6.21,6.21,0,0,0,2.42-.47,5.5,5.5,0,0,0,1.88-1.3,6,6,0,0,0,1.23-1.91A6.18,6.18,0,0,0,72.31,11.07Z"/><path d="M96.51,20.69H92.78L83.12,8.39v12.3H78.8V1.33h4l9.34,11.92V1.33h4.33Z"/></g></mask></defs><path class="cls-1" d="M19.4,17.57A15.3,15.3,0,0,1,17.8,19,9.68,9.68,0,0,1,16,20.11a9.09,9.09,0,0,1-2.14.67,13,13,0,0,1-2.62.25,10.54,10.54,0,0,1-4.07-.78,10.29,10.29,0,0,1-3.24-2.1A9.54,9.54,0,0,1,1.77,15,10,10,0,0,1,1,11.07V11a9.79,9.79,0,0,1,.77-3.87A9.54,9.54,0,0,1,3.91,4,9.72,9.72,0,0,1,7.18,1.8,10.87,10.87,0,0,1,11.4,1a13.1,13.1,0,0,1,2.53.22A10.93,10.93,0,0,1,16,1.83a9.7,9.7,0,0,1,1.74.94A11.56,11.56,0,0,1,19.26,4L16.47,7.11a10.56,10.56,0,0,0-2.4-1.6,6,6,0,0,0-2.7-.58A5.69,5.69,0,0,0,9,5.4,5.37,5.37,0,0,0,7.21,6.7,6.16,6.16,0,0,0,6,8.63,6.39,6.39,0,0,0,5.59,11v0A6.53,6.53,0,0,0,6,13.36,6.4,6.4,0,0,0,7.18,15.3,5.9,5.9,0,0,0,9,16.63a5.93,5.93,0,0,0,2.37.47,6.06,6.06,0,0,0,2.87-.61,11.24,11.24,0,0,0,2.37-1.66Z"/><path class="cls-1" d="M38.15,20.69H33L28.75,14.5H25.3v6.19H20.92V1.33H30A8.22,8.22,0,0,1,35.56,3a5.84,5.84,0,0,1,2,4.7v.06a5.94,5.94,0,0,1-1.2,3.84,6.77,6.77,0,0,1-3.07,2.16ZM33.11,8V7.94a2.43,2.43,0,0,0-.92-2.07,4.09,4.09,0,0,0-2.53-.69H25.3v5.56h4.45A3.63,3.63,0,0,0,32.22,10,2.48,2.48,0,0,0,33.11,8Z"/><path class="cls-1" d="M54.69,20.69H39.5V1.33h15V5.12H43.86V9.05h9.4v3.79h-9.4V16.9H54.69Z"/><path class="cls-1" d="M76.9,11a9.62,9.62,0,0,1-.8,3.9,10,10,0,0,1-2.22,3.18,10.22,10.22,0,0,1-3.36,2.16,11.94,11.94,0,0,1-8.49,0,10.94,10.94,0,0,1-3.36-2.13A9.91,9.91,0,0,1,56.48,15a9.83,9.83,0,0,1-.77-3.9V11a9.31,9.31,0,0,1,.8-3.87A9.82,9.82,0,0,1,58.7,4,10.32,10.32,0,0,1,62.06,1.8,11.27,11.27,0,0,1,66.33,1a11.13,11.13,0,0,1,4.25.8,10.22,10.22,0,0,1,3.33,2.13A9.07,9.07,0,0,1,76.1,7.09,9.41,9.41,0,0,1,76.9,11Zm-4.59.06V11a6.18,6.18,0,0,0-.45-2.35A5.57,5.57,0,0,0,70.6,6.73a5.5,5.5,0,0,0-1.9-1.3,5.78,5.78,0,0,0-2.43-.5,6.07,6.07,0,0,0-2.44.47A5.51,5.51,0,0,0,62,6.7a6.24,6.24,0,0,0-1.23,1.93A6.39,6.39,0,0,0,60.29,11v0a6.54,6.54,0,0,0,.43,2.35A6,6,0,0,0,62,15.3a6.55,6.55,0,0,0,1.91,1.33,6.29,6.29,0,0,0,2.45.47,6.21,6.21,0,0,0,2.42-.47,5.5,5.5,0,0,0,1.88-1.3,6,6,0,0,0,1.23-1.91A6.18,6.18,0,0,0,72.31,11.07Z"/><path class="cls-1" d="M96.51,20.69H92.78L83.12,8.39v12.3H78.8V1.33h4l9.34,11.92V1.33h4.33Z"/><g class="cls-2"><path class="cls-3" d="M19.4,17.57A15.3,15.3,0,0,1,17.8,19,9.68,9.68,0,0,1,16,20.11a9.09,9.09,0,0,1-2.14.67,13,13,0,0,1-2.62.25,10.54,10.54,0,0,1-4.07-.78,10.29,10.29,0,0,1-3.24-2.1A9.54,9.54,0,0,1,1.77,15,10,10,0,0,1,1,11.07V11a9.79,9.79,0,0,1,.77-3.87A9.54,9.54,0,0,1,3.91,4,9.72,9.72,0,0,1,7.18,1.8,10.87,10.87,0,0,1,11.4,1a13.1,13.1,0,0,1,2.53.22A10.93,10.93,0,0,1,16,1.83a9.7,9.7,0,0,1,1.74.94A11.56,11.56,0,0,1,19.26,4L16.47,7.11a10.56,10.56,0,0,0-2.4-1.6,6,6,0,0,0-2.7-.58A5.69,5.69,0,0,0,9,5.4,5.37,5.37,0,0,0,7.21,6.7,6.16,6.16,0,0,0,6,8.63,6.39,6.39,0,0,0,5.59,11v0A6.53,6.53,0,0,0,6,13.36,6.4,6.4,0,0,0,7.18,15.3,5.9,5.9,0,0,0,9,16.63a5.93,5.93,0,0,0,2.37.47,6.06,6.06,0,0,0,2.87-.61,11.24,11.24,0,0,0,2.37-1.66Z"/></g><g class="cls-2"><path class="cls-3" d="M38.15,20.69H33L28.75,14.5H25.3v6.19H20.92V1.33H30A8.22,8.22,0,0,1,35.56,3a5.84,5.84,0,0,1,2,4.7v.06a5.94,5.94,0,0,1-1.2,3.84,6.77,6.77,0,0,1-3.07,2.16ZM33.11,8V7.94a2.43,2.43,0,0,0-.92-2.07,4.09,4.09,0,0,0-2.53-.69H25.3v5.56h4.45A3.63,3.63,0,0,0,32.22,10,2.48,2.48,0,0,0,33.11,8Z"/></g><g class="cls-2"><path class="cls-3" d="M54.69,20.69H39.5V1.33h15V5.12H43.86V9.05h9.4v3.79h-9.4V16.9H54.69Z"/></g><g class="cls-2"><path class="cls-3" d="M76.9,11a9.62,9.62,0,0,1-.8,3.9,10,10,0,0,1-2.22,3.18,10.22,10.22,0,0,1-3.36,2.16,11.94,11.94,0,0,1-8.49,0,10.94,10.94,0,0,1-3.36-2.13A9.91,9.91,0,0,1,56.48,15a9.83,9.83,0,0,1-.77-3.9V11a9.31,9.31,0,0,1,.8-3.87A9.82,9.82,0,0,1,58.7,4,10.32,10.32,0,0,1,62.06,1.8,11.27,11.27,0,0,1,66.33,1a11.13,11.13,0,0,1,4.25.8,10.22,10.22,0,0,1,3.33,2.13A9.07,9.07,0,0,1,76.1,7.09,9.41,9.41,0,0,1,76.9,11Zm-4.59.06V11a6.18,6.18,0,0,0-.45-2.35A5.57,5.57,0,0,0,70.6,6.73a5.5,5.5,0,0,0-1.9-1.3,5.78,5.78,0,0,0-2.43-.5,6.07,6.07,0,0,0-2.44.47A5.51,5.51,0,0,0,62,6.7a6.24,6.24,0,0,0-1.23,1.93A6.39,6.39,0,0,0,60.29,11v0a6.54,6.54,0,0,0,.43,2.35A6,6,0,0,0,62,15.3a6.55,6.55,0,0,0,1.91,1.33,6.29,6.29,0,0,0,2.45.47,6.21,6.21,0,0,0,2.42-.47,5.5,5.5,0,0,0,1.88-1.3,6,6,0,0,0,1.23-1.91A6.18,6.18,0,0,0,72.31,11.07Z"/></g><g class="cls-2"><path class="cls-3" d="M96.51,20.69H92.78L83.12,8.39v12.3H78.8V1.33h4l9.34,11.92V1.33h4.33Z"/></g></svg>